<svg xmlns="http://www.w3.org/2000/svg" width="32" height="32" enable-background="new 0 0 32 32" viewBox="0 0 32 32" id="smile"><path fill="#263238" d="M16,30C8.28,30,2,23.72,2,16S8.28,2,16,2s14,6.28,14,14S23.72,30,16,30z M16,3C8.832,3,3,8.832,3,16
		s5.832,13,13,13s13-5.832,13-13S23.168,3,16,3z"></path><path fill="#263238" d="M16,25c-5.269,0-6.893-3.647-6.959-3.803c-0.109-0.254,0.009-0.548,0.263-0.657
		c0.251-0.108,0.546,0.008,0.656,0.261l0,0C10.016,20.932,11.414,24,16,24s5.984-3.068,6.041-3.199
		c0.111-0.252,0.406-0.364,0.657-0.259c0.253,0.109,0.37,0.402,0.261,0.655C22.893,21.353,21.269,25,16,25z"></path><path fill="#263238" d="M8.001 22c-.276 0-.5-.224-.5-.5s.224-.5.5-.5c.947 0 1.6-.8 1.606-.809.17-.218.483-.256.702-.085.217.17.256.484.085.702C10.357 20.856 9.446 22 8.001 22zM24.001 22c-1.444 0-2.355-1.144-2.394-1.191-.17-.218-.132-.532.085-.702.217-.169.53-.132.7.084.01.012.661.81 1.608.81.276 0 .5.224.5.5S24.278 22 24.001 22zM23.5 10.999c-.104 0-.208-.032-.297-.098C23.191 10.893 21.957 10 20.001 10c-.276 0-.5-.224-.5-.5s.224-.5.5-.5c2.305 0 3.74 1.055 3.8 1.1.22.165.265.477.101.698C23.804 10.93 23.653 10.999 23.5 10.999zM8.5 11c-.155 0-.307-.071-.405-.206-.163-.223-.113-.536.11-.698C8.268 10.051 9.738 9 12 9c.276 0 .5.224.5.5S12.276 10 12 10c-1.94 0-3.193.896-3.206.904C8.706 10.969 8.603 11 8.5 11zM23.5 15.5c-.276 0-.5-.224-.5-.5 0-1.057-.897-1.917-2-1.917s-2 .86-2 1.917c0 .276-.224.5-.5.5S18 15.276 18 15c0-1.608 1.346-2.917 3-2.917s3 1.309 3 2.917C24 15.276 23.776 15.5 23.5 15.5zM13.5 15.5c-.276 0-.5-.224-.5-.5 0-1.057-.897-1.917-2-1.917S9 13.943 9 15c0 .276-.224.5-.5.5S8 15.276 8 15c0-1.608 1.346-2.917 3-2.917s3 1.309 3 2.917C14 15.276 13.776 15.5 13.5 15.5z"></path></svg>